<?xml version="1.0" encoding="utf-8"?>
<!-- Generator: Adobe Illustrator 23.0.3, SVG Export Plug-In . SVG Version: 6.00 Build 0)  -->
<svg version="1.1" id="Layer_1" xmlns="http://www.w3.org/2000/svg" xmlns:xlink="http://www.w3.org/1999/xlink" x="0px" y="0px"
	 viewBox="0 0 595.3 225.6" style="enable-background:new 0 0 595.3 225.6;" xml:space="preserve">
<style type="text/css">
	.st0{fill:url(#SVGID_1_);}
	.st1{fill:url(#SVGID_2_);}
	.st2{fill:url(#SVGID_3_);}
	.st3{fill:url(#SVGID_4_);}
	.st4{fill:url(#SVGID_5_);}
	.st5{fill:url(#SVGID_6_);}
	.st6{fill:url(#SVGID_7_);}
	.st7{fill:url(#SVGID_8_);}
	.st8{fill:#1A1F4F;}
</style>
<g>
	<linearGradient id="SVGID_1_" gradientUnits="userSpaceOnUse" x1="43.586" y1="98.4935" x2="131.6889" y2="29.866">
		<stop  offset="0" style="stop-color:#21428B"/>
		<stop  offset="1" style="stop-color:#29ACD7"/>
	</linearGradient>
	<path class="st0" d="M120.3,22.7c-0.1,5.7-0.4,11.4-1.4,17c-0.7,3.8-1.6,7.6-3.1,11.1c-0.9,2.3-2.1,4.5-3.6,6.5
		c-1.5,2-3.2,3.1-5.3,4.4c-7.2,4.4-14.4,8.8-21.7,13.2c-9.9,6-20.2,11.4-29.9,17.8c-4.8,3.2-9.5,7.4-10.7,13.2
		c-1.4,7.1,1.9,14.3,6.1,19.8C50,125,11.7,89.6,49.7,60.9c2.6-2,5.2-4,7.9-5.9c2.8-2.1,5.5-4.2,8.3-6.3c2.8-2.1,5.7-4.3,8.5-6.4
		c2.8-2.1,5.6-4.2,8.4-6.4c2.7-2,5.4-4.1,8.1-6.1c2.5-1.9,5-3.8,7.5-5.7c2.3-1.7,4.5-3.4,6.7-5.1c1.9-1.4,3.8-2.9,5.7-4.3
		c1.4-1.1,2.9-2.2,4.4-3.3c0.9-0.7,1.9-1.4,2.8-2.1l1-0.7h0.8C120.1,13.4,120.3,18.1,120.3,22.7z"/>
	
		<linearGradient id="SVGID_2_" gradientUnits="userSpaceOnUse" x1="-1403.2236" y1="129.4427" x2="-1315.1207" y2="60.8152" gradientTransform="matrix(-1 0 0 -1 -1320.7275 256.5798)">
		<stop  offset="0" style="stop-color:#21428B"/>
		<stop  offset="1" style="stop-color:#29ACD7"/>
	</linearGradient>
	<path class="st1" d="M5.8,202.9c0.1-5.7,0.4-11.4,1.4-17c0.7-3.8,1.6-7.6,3.1-11.1c0.9-2.3,2.1-4.5,3.6-6.5c1.5-2,3.2-3.1,5.3-4.4
		c7.2-4.4,14.4-8.8,21.7-13.2c9.9-6,20.2-11.4,29.9-17.8c4.8-3.2,9.5-7.4,10.7-13.2c1.4-7.1-1.9-14.3-6.1-19.8
		c0.8,0.7,39.1,36.2,1.1,64.8c-2.6,2-5.2,4-7.9,5.9c-2.8,2.1-5.5,4.2-8.3,6.3c-2.8,2.1-5.7,4.3-8.5,6.4c-2.8,2.1-5.6,4.2-8.4,6.4
		c-2.7,2-5.4,4.1-8.1,6.1c-2.5,1.9-5,3.8-7.5,5.7c-2.3,1.7-4.5,3.4-6.7,5.1c-1.9,1.4-3.8,2.9-5.7,4.3c-1.4,1.1-2.9,2.2-4.4,3.3
		c-0.9,0.7-1.9,1.4-2.8,2.1l-1,0.7H6.3C6,212.3,5.8,207.6,5.8,202.9z"/>
	<linearGradient id="SVGID_3_" gradientUnits="userSpaceOnUse" x1="109.5276" y1="53.1493" x2="53.2654" y2="207.4066">
		<stop  offset="0" style="stop-color:#29ACD7"/>
		<stop  offset="1" style="stop-color:#21428B"/>
	</linearGradient>
	<path class="st2" d="M71.7,75.4c6.6-3.6,13.2-7.1,19.7-10.9c4.9-2.9,10.5-5.6,16.2-6.4c2.6-0.4,5.5-0.3,7.8,1.2
		c2.7,1.8,3.6,5.1,3.8,8.2c0.6,8.7,0.5,17.4,0.1,26c-0.3,5.3-0.7,10.7-1.2,16c-0.6,5.8-1,11.7-3,17.2c-1.8,4.9-4.7,9.3-8.1,13.3
		c-1.7,2-3.6,3.9-5.5,5.8c-2,1.9-4.3,3.4-6.5,5.1c-1.7,1.3-3.4,2.5-5,3.8c-2.1,1.6-4.2,3.1-6.2,4.7c-2.4,1.8-4.8,3.6-7.2,5.4
		c38-28.6-0.3-64-1.1-64.8c0,0,0,0,0,0c-0.5-0.7-1-1.3-1.6-2C59.4,80.9,71.7,75.4,71.7,75.4z"/>
	<linearGradient id="SVGID_4_" gradientUnits="userSpaceOnUse" x1="16.0563" y1="172.6417" x2="71.0819" y2="25.2883">
		<stop  offset="0" style="stop-color:#29ACD7"/>
		<stop  offset="1" style="stop-color:#21428B"/>
	</linearGradient>
	<path class="st3" d="M54.4,150.3c-6.6,3.6-13.2,7.1-19.7,10.9c-4.9,2.9-10.5,5.6-16.2,6.4c-2.6,0.4-5.5,0.3-7.8-1.2
		c-2.7-1.8-3.6-5.1-3.8-8.2c-0.6-8.7-0.5-17.4-0.1-26c0.3-5.3,0.7-10.7,1.2-16c0.6-5.8,1-11.7,3-17.2c1.8-4.9,4.7-9.3,8.1-13.3
		c1.7-2,3.6-3.9,5.5-5.8c2-1.9,4.3-3.4,6.5-5.1c1.7-1.3,3.4-2.5,5-3.8c2.1-1.6,4.2-3.1,6.2-4.7c2.4-1.8,4.8-3.6,7.2-5.4
		c-38,28.6,0.3,64,1.1,64.8c0,0,0,0,0,0c0.5,0.7,1,1.3,1.6,2C66.7,144.7,54.4,150.3,54.4,150.3z"/>
	<g>
		<linearGradient id="SVGID_5_" gradientUnits="userSpaceOnUse" x1="58.7243" y1="111.2919" x2="64.0266" y2="111.2919">
			<stop  offset="0" style="stop-color:#21428B"/>
			<stop  offset="1" style="stop-color:#29ACD7"/>
		</linearGradient>
		<path class="st4" d="M64,103.5l-3.5,15.9c-0.1,0.4-0.5,0.7-0.9,0.7c-0.1,0-0.1,0-0.2,0c-0.5-0.1-0.8-0.6-0.7-1.1l3.5-15.9
			c0.1-0.5,0.6-0.8,1.1-0.7C63.8,102.6,64.1,103.1,64,103.5L64,103.5z"/>
		<linearGradient id="SVGID_6_" gradientUnits="userSpaceOnUse" x1="50.7764" y1="111.3201" x2="56.2039" y2="111.3201">
			<stop  offset="0" style="stop-color:#21428B"/>
			<stop  offset="1" style="stop-color:#29ACD7"/>
		</linearGradient>
		<path class="st5" d="M55.9,107.6c0.4-0.4,0.4-0.9,0-1.3s-0.9-0.4-1.3,0l-3.1,3.1c-1,1-1,2.7,0,3.7l3.1,3.1
			c0.2,0.2,0.4,0.3,0.6,0.3c0.2,0,0.5-0.1,0.6-0.3c0.4-0.4,0.4-0.9,0-1.3l-3.1-3.1c-0.3-0.3-0.3-0.9,0-1.2L55.9,107.6L55.9,107.6z"
			/>
		<linearGradient id="SVGID_7_" gradientUnits="userSpaceOnUse" x1="66.547" y1="111.329" x2="71.9568" y2="111.329">
			<stop  offset="0" style="stop-color:#21428B"/>
			<stop  offset="1" style="stop-color:#29ACD7"/>
		</linearGradient>
		<path class="st6" d="M68.1,106.4c-0.4-0.4-0.9-0.4-1.3,0s-0.4,0.9,0,1.3l3.1,3.1c0.3,0.3,0.3,0.9,0,1.2l-3.1,3.1
			c-0.4,0.4-0.4,0.9,0,1.3c0.2,0.2,0.4,0.3,0.6,0.3c0.2,0,0.5-0.1,0.6-0.3l3.1-3.1c1-1,1-2.7,0-3.7L68.1,106.4L68.1,106.4z"/>
	</g>
</g>
<g>
	<g>
		<path class="st8" d="M171.2,76h-11c-3.3,0-6.1-1.7-6.1-4.9c0-3.2,2.7-4.9,6.1-4.9h33.7c3.3,0,6.1,1.7,6.1,4.9
			c0,3.2-2.7,4.9-6.1,4.9h-11v36.5c0,3.5-2.3,5.8-5.8,5.8s-5.8-2.3-5.8-5.8V76z"/>
		<path class="st8" d="M233.4,107.4c0,4.3,1.1,5.3,1.1,7c0,2.3-2.2,4-4.7,4c-4.5,0-6-2.8-6.1-6.1c-4.1,4.5-8.8,6.1-14.2,6.1
			c-5.9,0-11.7-4.1-11.7-10.6c0-8.6,6.5-11,14.5-12l6.3-0.7c2.5-0.3,4.5-0.9,4.5-3.8c0-3-3.1-4.3-6.5-4.3c-7.7,0-7.9,5.7-12,5.7
			c-2.6,0-4.4-1.9-4.4-4c0-4.1,5.8-9.4,16.5-9.4c10,0,16.9,3.2,16.9,10.7V107.4z M223,99.9c-1.1,1.1-3.3,1.4-4.5,1.6l-3.8,0.6
			c-4.3,0.6-6.7,2-6.7,5.1c0,2.3,2.2,4.3,5.8,4.3c5.7,0,9.2-3.7,9.2-7.5V99.9z"/>
		<path class="st8" d="M245.2,84.4c0-3.1,1.4-5.2,4.7-5.2s4.7,2.1,4.7,5.2v1.4h0.1c2.9-3.8,6.7-6.5,12.6-6.5
			c6.3,0,13.1,3.1,13.1,13.7v20.2c0,2.8-1.1,5.2-5.2,5.2s-5.2-2.4-5.2-5.2V95c0-4.2-2.1-7.2-6.5-7.2c-3.6,0-7.9,3-7.9,8.2v17.2
			c0,2.8-1.1,5.2-5.2,5.2c-4.1,0-5.2-2.4-5.2-5.2V84.4z"/>
		<path class="st8" d="M288.6,87.3c-0.3-0.9-0.6-2-0.6-2.6c0-3.7,2.6-5.4,5.1-5.4c3.9,0,4.9,3.3,5.2,4.3l7,23.5h0.1l7-23.5
			c0.3-1.1,1.3-4.3,5.2-4.3c2.5,0,5.1,1.7,5.1,5.4c0,0.6-0.4,1.8-0.6,2.6l-9.8,27.3c-1,2.8-1.6,3.7-6.8,3.7s-5.8-0.9-6.8-3.7
			L288.6,87.3z"/>
		<path class="st8" d="M335.8,64.9c3,0,5.4,2.4,5.4,5.4c0,3-2.4,5.4-5.4,5.4c-3,0-5.4-2.4-5.4-5.4C330.4,67.4,332.8,64.9,335.8,64.9
			z M330.6,84.4c0-2.8,1.1-5.2,5.2-5.2s5.2,2.4,5.2,5.2v28.7c0,2.8-1.1,5.2-5.2,5.2s-5.2-2.4-5.2-5.2V84.4z"/>
		<path class="st8" d="M353.2,84.1c0-3.1,2.1-4.8,4.7-4.8s4.7,1.7,4.7,4.8v4h0.1c1.2-4.3,3.6-8.8,8.6-8.8c3.3,0,5.7,2.1,5.7,5.1
			c0,3.8-2.6,5.2-5.1,5.2h-1.9c-4.2,0-6.5,2.9-6.5,11.5v12.1c0,2.8-1.1,5.2-5.2,5.2s-5.2-2.4-5.2-5.2V84.1z"/>
		<path class="st8" d="M437.2,87.7c10.7,2.4,13.4,8.8,13.4,14.7c0,9.3-7,16.2-21.1,16.2c-14.8,0-21.4-7.4-21.4-13
			c0-2.8,2.1-4.8,4.9-4.8c6.3,0,4.7,9.3,16.5,9.3c6.1,0,9.4-3.3,9.4-6.8c0-2.1-1-4.3-5-5.3l-13.2-3.3c-10.6-2.7-12.5-8.5-12.5-14
			c0-11.4,10.5-15.7,20.4-15.7c9.1,0,19.9,5.1,19.9,12c0,2.9-2.5,4.6-5.3,4.6c-5.4,0-4.4-7.6-15.3-7.6c-5.4,0-8.4,2.5-8.4,6.1
			s4.3,4.7,8,5.6L437.2,87.7z"/>
		<path class="st8" d="M466.4,64.9c3,0,5.4,2.4,5.4,5.4c0,3-2.4,5.4-5.4,5.4c-3,0-5.4-2.4-5.4-5.4C461,67.4,463.5,64.9,466.4,64.9z
			 M461.2,84.4c0-2.8,1.1-5.2,5.2-5.2s5.2,2.4,5.2,5.2v28.7c0,2.8-1.1,5.2-5.2,5.2s-5.2-2.4-5.2-5.2V84.4z"/>
		<path class="st8" d="M517.8,107.4c0,4.3,1.1,5.3,1.1,7c0,2.3-2.2,4-4.7,4c-4.5,0-6-2.8-6.1-6.1c-4.1,4.5-8.8,6.1-14.2,6.1
			c-5.9,0-11.7-4.1-11.7-10.6c0-8.6,6.5-11,14.5-12l6.3-0.7c2.5-0.3,4.5-0.9,4.5-3.8c0-3-3.1-4.3-6.5-4.3c-7.7,0-7.9,5.7-12,5.7
			c-2.6,0-4.4-1.9-4.4-4c0-4.1,5.8-9.4,16.5-9.4c10,0,16.9,3.2,16.9,10.7V107.4z M507.4,99.9c-1.1,1.1-3.3,1.4-4.5,1.6l-3.8,0.6
			c-4.3,0.6-6.7,2-6.7,5.1c0,2.3,2.2,4.3,5.8,4.3c5.7,0,9.2-3.7,9.2-7.5V99.9z"/>
		<path class="st8" d="M529.6,84.4c0-3.1,1.9-5.2,4.9-5.2s4.9,2.1,4.9,5.2v1.4h0.1c2.7-4.1,7.3-6.5,12.5-6.5c3.6,0,8,1.6,10,6.5
			c2.9-4.1,6.6-6.5,12.2-6.5c7.2,0,13,3.3,13,12.6v21.3c0,2.8-1.1,5.2-5.2,5.2s-5.2-2.4-5.2-5.2V94.5c0-3.7-1.6-6.7-5.7-6.7
			c-4,0-7.5,3.2-7.5,8v17.3c0,2.8-1.1,5.2-5.2,5.2c-4.1,0-5.2-2.4-5.2-5.2V94.5c0-3.7-1.6-6.7-5.7-6.7c-4,0-7.5,3.2-7.5,8v17.3
			c0,2.8-1.1,5.2-5.2,5.2c-4.1,0-5.2-2.4-5.2-5.2V84.4z"/>
	</g>
	<g>
		<path d="M156.3,154.1v-23.8h2.9l8.2,15h0.9l8.2-15h3v23.8h-1.8v-20.1h-0.8l-7.9,15.1h-2.2l-7.9-15.1h-0.8v20.1H156.3z"/>
		<path d="M206.2,145.4c0,0.4,0,0.8,0,1h-16.8c0.3,1.7,1.1,3,2.5,4c1.4,1,3.1,1.6,5.1,1.6c1.5,0,2.8-0.3,4-0.8
			c1.2-0.5,2.2-1.2,2.8-2h2c-0.8,1.7-1.9,3-3.5,3.9c-1.6,1-3.4,1.4-5.4,1.4c-2.6,0-4.9-0.9-6.6-2.6c-1.8-1.8-2.7-3.9-2.7-6.6
			c0-2.6,0.9-4.8,2.7-6.6c1.8-1.8,4-2.6,6.6-2.6s4.8,0.9,6.6,2.6C205.3,140.6,206.2,142.8,206.2,145.4z M202,140.3
			c-1.4-1-3.1-1.6-5.1-1.6s-3.7,0.5-5.1,1.5c-1.4,1-2.2,2.4-2.5,4h15.2C204.2,142.7,203.4,141.4,202,140.3z"/>
		<path d="M215.5,141.3c0.6-1.6,1.5-2.8,2.8-3.7c1.3-0.9,2.7-1.3,4.4-1.3v3c-2.2,0-4,0.5-5.3,1.6c-1.3,1.1-1.9,2.5-1.9,4.4v8.8h-1.7
			v-17.6h1.7V141.3z"/>
		<path d="M238.8,136.2c2.2,0,4,0.7,5.3,2c1.4,1.3,2,3.1,2,5.3v10.6h-1.7v-10.1c0-1.6-0.6-2.9-1.7-3.9c-1.1-1-2.7-1.5-4.6-1.5
			c-2,0-3.6,0.5-4.8,1.5c-1.2,1-1.8,2.3-1.8,4v10H230v-17.6h1.7v4.2c0.6-1.5,1.5-2.6,2.8-3.4C235.7,136.6,237.1,136.2,238.8,136.2z"
			/>
		<path d="M275.1,154.6c-2.6,0-4.7-0.7-6.4-2c-1.7-1.3-2.6-3-2.6-5h1.8c0,1.3,0.7,2.3,2.1,3.2c1.4,0.8,3.1,1.3,5.2,1.3
			c1.9,0,3.6-0.4,4.9-1.1c1.3-0.8,2-1.7,2-3c0-0.6-0.2-1.1-0.6-1.6c-0.4-0.5-0.8-0.9-1.3-1.2c-0.5-0.3-1.1-0.6-1.9-0.9
			c-0.8-0.3-1.4-0.5-1.9-0.6c-0.5-0.1-1.1-0.2-1.8-0.4c-2.6-0.5-4.5-1.3-5.9-2.5c-1.4-1.1-2-2.6-2-4.3c0-2,0.8-3.5,2.4-4.7
			c1.6-1.2,3.6-1.8,5.9-1.8c2.4,0,4.4,0.6,6,1.9s2.4,2.9,2.4,4.8h-1.8c0-1.2-0.6-2.2-1.9-2.9c-1.3-0.8-2.9-1.2-4.8-1.2
			c-1.8,0-3.3,0.4-4.6,1.1s-1.9,1.6-1.9,2.8c0,2.1,2.3,3.5,7,4.4c5.6,1.1,8.5,3.4,8.5,6.9c0,2-0.9,3.7-2.6,4.9
			C279.6,153.9,277.5,154.6,275.1,154.6z"/>
		<path d="M301.1,139.1h-6v10.2c0,1.6,1,2.3,3,2.3h2.7v2.5h-2.8c-3,0-4.5-1.5-4.5-4.4v-10.7h-4v-2.5h4v-4.8l1.7-0.4v5.2h6V139.1z"/>
		<path d="M322.9,136.6h1.6v17.6h-1.6v-5c-0.6,1.7-1.7,3-3.1,4s-3,1.5-4.9,1.5c-2.5,0-4.7-0.9-6.4-2.6c-1.7-1.8-2.5-3.9-2.5-6.6
			c0-2.6,0.8-4.8,2.5-6.6c1.7-1.8,3.8-2.6,6.4-2.6c1.8,0,3.5,0.5,4.9,1.5c1.4,1,2.4,2.3,3.1,4V136.6z M309.9,150.1
			c1.4,1.3,3.2,1.9,5.4,1.9c2.2,0,4-0.6,5.4-1.9s2.2-2.8,2.2-4.8c0-1.9-0.7-3.5-2.2-4.8s-3.3-1.9-5.4-1.9c-2.2,0-4,0.6-5.4,1.9
			s-2.2,2.8-2.2,4.8C307.7,147.3,308.5,148.9,309.9,150.1z"/>
		<path d="M341.6,154.6c-2.6,0-4.9-0.9-6.6-2.6c-1.8-1.8-2.7-3.9-2.7-6.6c0-2.6,0.9-4.8,2.7-6.6c1.8-1.8,4-2.6,6.6-2.6
			c2.2,0,4,0.6,5.6,1.8c1.6,1.2,2.7,2.8,3.2,4.7h-1.8c-0.6-1.2-1.5-2.2-2.7-2.9s-2.7-1.1-4.3-1.1c-2.2,0-4,0.6-5.4,1.9
			s-2.2,2.8-2.2,4.8c0,1.9,0.7,3.5,2.2,4.8s3.3,1.9,5.4,1.9c1.6,0,3.1-0.4,4.3-1.1c1.3-0.7,2.2-1.7,2.7-2.9h1.8
			c-0.6,2-1.6,3.5-3.2,4.7C345.6,154,343.8,154.6,341.6,154.6z"/>
		<path d="M371.3,154.1l-8.1-8l-3.4,2.6v5.4h-1.7v-24.8h1.7v16h0.8l9.5-8.8h3.2l-8.7,8.4l9,9.2H371.3z"/>
		<path d="M401.7,130.4c3.4,0,6.3,1.1,8.5,3.4c2.3,2.3,3.4,5.1,3.4,8.5s-1.1,6.2-3.4,8.5c-2.3,2.3-5.1,3.4-8.5,3.4h-9.1v-23.8H401.7
			z M401.7,151.5c2.9,0,5.3-0.9,7.3-2.6c1.9-1.8,2.9-4,2.9-6.6s-1-4.9-2.9-6.6c-1.9-1.8-4.4-2.6-7.3-2.6h-7.3v18.5H401.7z"/>
		<path d="M439.2,145.4c0,0.4,0,0.8,0,1h-16.8c0.3,1.7,1.1,3,2.5,4s3.1,1.6,5.1,1.6c1.5,0,2.8-0.3,4-0.8c1.2-0.5,2.2-1.2,2.8-2h2
			c-0.8,1.7-1.9,3-3.5,3.9c-1.6,1-3.4,1.4-5.4,1.4c-2.6,0-4.9-0.9-6.6-2.6c-1.8-1.8-2.7-3.9-2.7-6.6c0-2.6,0.9-4.8,2.7-6.6
			c1.8-1.8,4-2.6,6.6-2.6c2.6,0,4.8,0.9,6.6,2.6C438.3,140.6,439.2,142.8,439.2,145.4z M435,140.3c-1.4-1-3.1-1.6-5.1-1.6
			c-2,0-3.7,0.5-5.1,1.5c-1.4,1-2.2,2.4-2.5,4h15.2C437.2,142.7,436.4,141.4,435,140.3z"/>
		<path d="M451.2,154.1l-7.3-17.6h1.8L452,151h0.9l6.4-14.4h1.9l-7.3,17.6H451.2z"/>
		<path d="M484.5,145.4c0,0.4,0,0.8,0,1h-16.8c0.3,1.7,1.1,3,2.5,4s3.1,1.6,5.1,1.6c1.5,0,2.8-0.3,4-0.8c1.2-0.5,2.2-1.2,2.8-2h2
			c-0.8,1.7-1.9,3-3.5,3.9c-1.6,1-3.4,1.4-5.4,1.4c-2.6,0-4.9-0.9-6.6-2.6c-1.8-1.8-2.7-3.9-2.7-6.6c0-2.6,0.9-4.8,2.7-6.6
			c1.8-1.8,4-2.6,6.6-2.6c2.6,0,4.8,0.9,6.6,2.6C483.6,140.6,484.5,142.8,484.5,145.4z M480.3,140.3c-1.4-1-3.1-1.6-5.1-1.6
			c-2,0-3.7,0.5-5.1,1.5c-1.4,1-2.2,2.4-2.5,4h15.2C482.5,142.7,481.7,141.4,480.3,140.3z"/>
		<path d="M492.2,154.1v-24.8h1.7v24.8H492.2z"/>
		<path d="M517.5,151.9c-1.8,1.8-4,2.6-6.6,2.6c-2.6,0-4.9-0.9-6.6-2.6c-1.8-1.8-2.7-3.9-2.7-6.6c0-2.6,0.9-4.8,2.7-6.6
			c1.8-1.8,4-2.6,6.6-2.6c2.6,0,4.8,0.9,6.6,2.6c1.8,1.8,2.7,3.9,2.7,6.6C520.2,148,519.3,150.2,517.5,151.9z M505.5,150.1
			c1.5,1.3,3.3,1.9,5.4,1.9c2.2,0,4-0.6,5.4-1.9s2.2-2.8,2.2-4.8c0-1.9-0.7-3.5-2.2-4.8s-3.2-1.9-5.4-1.9c-2.2,0-4,0.6-5.4,1.9
			s-2.2,2.8-2.2,4.8C503.3,147.3,504,148.9,505.5,150.1z"/>
		<path d="M537.5,136.2c2.6,0,4.7,0.9,6.4,2.6c1.7,1.8,2.5,3.9,2.5,6.6c0,2.6-0.8,4.8-2.5,6.6c-1.7,1.8-3.8,2.6-6.4,2.6
			c-1.8,0-3.4-0.5-4.8-1.5s-2.4-2.3-3.1-4v11.6h-1.7v-24.1h1.7v5c0.6-1.7,1.7-3,3.1-4C534.1,136.7,535.7,136.2,537.5,136.2z
			 M531.7,150.1c1.4,1.3,3.2,1.9,5.4,1.9c2.2,0,4-0.6,5.4-1.9c1.4-1.3,2.2-2.8,2.2-4.8c0-1.9-0.7-3.5-2.2-4.8
			c-1.4-1.3-3.3-1.9-5.4-1.9c-2.2,0-4,0.6-5.4,1.9s-2.2,2.8-2.2,4.8C529.6,147.3,530.3,148.9,531.7,150.1z"/>
		<path d="M571.6,145.4c0,0.4,0,0.8,0,1h-16.8c0.3,1.7,1.1,3,2.5,4s3.1,1.6,5.1,1.6c1.5,0,2.8-0.3,4-0.8c1.2-0.5,2.2-1.2,2.8-2h2
			c-0.8,1.7-1.9,3-3.5,3.9c-1.6,1-3.4,1.4-5.4,1.4c-2.6,0-4.9-0.9-6.6-2.6c-1.8-1.8-2.7-3.9-2.7-6.6c0-2.6,0.9-4.8,2.7-6.6
			c1.8-1.8,4-2.6,6.6-2.6c2.6,0,4.8,0.9,6.6,2.6C570.7,140.6,571.6,142.8,571.6,145.4z M567.4,140.3c-1.4-1-3.1-1.6-5.1-1.6
			c-2,0-3.7,0.5-5.1,1.5c-1.4,1-2.2,2.4-2.5,4h15.2C569.7,142.7,568.8,141.4,567.4,140.3z"/>
		<path d="M581,141.3c0.6-1.6,1.5-2.8,2.8-3.7c1.3-0.9,2.7-1.3,4.4-1.3v3c-2.2,0-4,0.5-5.3,1.6s-1.9,2.5-1.9,4.4v8.8h-1.7v-17.6h1.7
			V141.3z"/>
	</g>
</g>
</svg>
